<svg width="36" height="37" viewBox="0 0 36 37" fill="none" xmlns="http://www.w3.org/2000/svg">
<path d="M25.4103 36V29.5582C25.4757 28.7645 25.3633 27.9666 25.0807 27.2175C24.7982 26.4685 24.3518 25.7854 23.7713 25.2138C29.2462 24.6312 35 22.6504 35 13.562C34.9996 11.238 34.0632 9.00311 32.3846 7.31993C33.1794 5.2867 33.1232 3.0393 32.2277 1.0446C32.2277 1.0446 30.1703 0.462008 25.4103 3.50812C21.414 2.47414 17.2014 2.47414 13.2051 3.50812C8.44513 0.462008 6.38769 1.0446 6.38769 1.0446C5.49214 3.0393 5.43594 5.2867 6.23077 7.31993C4.53971 9.01559 3.60235 11.2707 3.61538 13.6119C3.61538 22.6337 9.36923 24.6145 14.8441 25.2637C14.2705 25.8296 13.828 26.5045 13.5457 27.2444C13.2633 27.9843 13.1473 28.7727 13.2051 29.5582V36M13.2051 31.0064C4.48718 33.5032 4.48718 26.845 1 26.0127L13.2051 31.0064Z" stroke="white" stroke-width="1.99832" stroke-linecap="round" stroke-linejoin="round"/>
</svg>
