<svg width="39" height="32" viewBox="0 0 39 32" fill="none" xmlns="http://www.w3.org/2000/svg">
<path d="M38 1.01681C36.3895 2.14614 34.6063 3.0099 32.7191 3.57482C31.7062 2.41704 30.3601 1.59645 28.8627 1.224C27.3654 0.851562 25.7892 0.945248 24.3471 1.49239C22.9051 2.03953 21.6669 3.01373 20.8 4.28323C19.9331 5.55272 19.4793 7.05627 19.5 8.59051V10.2624C16.5444 10.3386 13.6158 9.68696 10.9749 8.36555C8.33398 7.04414 6.06281 5.09396 4.36364 2.68871C4.36364 2.68871 -2.36364 17.7358 12.7727 24.4234C9.30907 26.7606 5.18295 27.9326 1 27.7672C16.1364 36.1267 34.6364 27.7672 34.6364 8.54035C34.6348 8.07465 34.5898 7.6101 34.5018 7.15268C36.2183 5.4699 37.4296 3.34529 38 1.01681V1.01681Z" stroke="white" stroke-width="1.99832" stroke-linecap="round" stroke-linejoin="round"/>
</svg>
